<svg width="13" height="12" viewBox="0 0 13 12" fill="none" xmlns="http://www.w3.org/2000/svg">
<path d="M0 12V0H6.31068V2.82353H13V12H0ZM0.701187 11.2941H2.80475V9.17647H0.701187V11.2941ZM0.701187 8.47059H2.80475V6.35294H0.701187V8.47059ZM0.701187 5.64706H2.80475V3.52941H0.701187V5.64706ZM0.701187 2.82353H2.80475V0.705882H0.701187V2.82353ZM3.50593 11.2941H5.60949V9.17647H3.50593V11.2941ZM3.50593 8.47059H5.60949V6.35294H3.50593V8.47059ZM3.50593 5.64706H5.60949V3.52941H3.50593V5.64706ZM3.50593 2.82353H5.60949V0.705882H3.50593V2.82353ZM6.31068 11.2941H12.2988V3.52941H6.31068V5.64706H7.98371V6.35294H6.31068V8.47059H7.98301V9.17647H6.31068V11.2941ZM9.65534 6.35294V5.64706H10.3565V6.35294H9.65534ZM9.65534 9.17647V8.47059H10.3565V9.17647H9.65534Z" fill="#E1E1E1"/>
</svg>
