<svg width="16" height="16" viewBox="0 0 16 16" fill="none" xmlns="http://www.w3.org/2000/svg">
<path d="M5.4865 15.2191H2.74484C1.73484 15.2191 0.916504 14.4008 0.916504 13.3908V8.01247C0.91712 7.62066 1.00145 7.23351 1.16386 6.87694C1.32626 6.52037 1.56298 6.20262 1.85817 5.94497L6.79984 1.64081C7.1326 1.35133 7.55878 1.19189 7.99984 1.19189C8.44089 1.19189 8.86708 1.35133 9.19984 1.64081L14.1415 5.94581C14.4366 6.20336 14.6732 6.52097 14.8356 6.87739C14.998 7.23381 15.0824 7.6208 15.0832 8.01247V13.3908C15.0832 13.8756 14.8907 14.3405 14.548 14.6833C14.2053 15.0262 13.7404 15.2189 13.2557 15.2191H10.7415V9.73497C10.7415 8.97831 10.1282 8.36414 9.37067 8.36414H6.85817C6.10067 8.36414 5.48734 8.97831 5.48734 9.73497L5.4865 15.2191ZM5.4865 15.2191H10.7423" stroke="#000000" stroke-width="1.25" stroke-linejoin="round"/>
</svg>
