<svg width="17" height="12" viewBox="0 0 17 12" fill="none" xmlns="http://www.w3.org/2000/svg">
<path d="M3.89279 12C3.46329 12 3.10341 11.868 2.81314 11.604C2.52347 11.3394 2.37863 11.01 2.37863 10.6157V3.29657L0.498098 1.134C0.435561 1.05971 0.392493 0.986857 0.368894 0.915428C0.345295 0.844571 0.333496 0.770286 0.333496 0.692572C0.333496 0.518857 0.397508 0.36 0.525532 0.216C0.653555 0.0719999 0.827596 0 1.04766 0H14.8193C15.2488 0 15.6087 0.132286 15.899 0.396857C16.1887 0.660857 16.3335 0.990286 16.3335 1.38514V10.6157C16.3335 11.01 16.1887 11.3394 15.899 11.604C15.6087 11.868 15.2488 12 14.8193 12H3.89279ZM1.41845 0.857143L3.26358 2.96743V10.6157C3.26358 10.7471 3.32878 10.868 3.45916 10.9783C3.58954 11.0886 3.73409 11.1434 3.89279 11.1429H14.8202C14.9789 11.1429 15.1235 11.088 15.2539 10.9783C15.3842 10.8686 15.4494 10.7477 15.4494 10.6157V1.38429C15.4494 1.25286 15.3842 1.132 15.2539 1.02171C15.1235 0.911429 14.9786 0.856571 14.8193 0.857143H1.41845ZM7.97066 7.87886H12.2326C12.3583 7.87886 12.4633 7.838 12.5477 7.75629C12.6326 7.67457 12.6751 7.57257 12.6751 7.45029C12.6751 7.328 12.6326 7.22629 12.5477 7.14514C12.4627 7.064 12.3574 7.02286 12.2317 7.02171H6.95739C6.74146 7.02171 6.59574 7.11429 6.52022 7.29943C6.44471 7.48514 6.48453 7.64771 6.63969 7.78714L8.58305 9.57C8.66565 9.65 8.76713 9.69 8.88748 9.69C9.00842 9.69 9.11019 9.65 9.19279 9.57C9.28718 9.47857 9.33438 9.372 9.33438 9.25029C9.33438 9.12857 9.28718 9.02771 9.19279 8.94771L7.97066 7.87886ZM10.537 4.12114H6.25916C6.13291 4.12114 6.0276 4.162 5.94323 4.24371C5.85886 4.32543 5.81668 4.42743 5.81668 4.54971C5.81668 4.672 5.85886 4.774 5.94323 4.85571C6.0276 4.93743 6.13291 4.97829 6.25916 4.97829H11.5326C11.7491 4.97829 11.8951 4.88571 11.9707 4.70057C12.0462 4.51543 12.0064 4.35314 11.8512 4.21371L9.92465 2.43C9.84205 2.35 9.74058 2.31 9.62022 2.31C9.49987 2.31 9.3981 2.35 9.31491 2.43C9.22052 2.52143 9.17332 2.628 9.17332 2.74971C9.17332 2.87143 9.22052 2.97257 9.31491 3.05314L10.537 4.12114Z" fill="#000000"/>
</svg>
