<svg width="12" height="15" viewBox="0 0 12 15" fill="none" xmlns="http://www.w3.org/2000/svg">
<path d="M6.1665 1.07143C6.7104 1.07143 7.24209 1.22852 7.69432 1.52285C8.14656 1.81717 8.49903 2.23551 8.70717 2.72495C8.91531 3.2144 8.96977 3.75297 8.86366 4.27256C8.75755 4.79216 8.49564 5.26943 8.11105 5.64404C7.72645 6.01864 7.23645 6.27375 6.703 6.3771C6.16955 6.48046 5.61662 6.42741 5.11412 6.22468C4.61163 6.02194 4.18214 5.67862 3.87996 5.23813C3.57779 4.79765 3.4165 4.27977 3.4165 3.75C3.4165 3.0396 3.70624 2.35829 4.22196 1.85596C4.73769 1.35363 5.43716 1.07143 6.1665 1.07143ZM6.1665 0C5.40505 0 4.66069 0.219934 4.02756 0.631989C3.39443 1.04404 2.90096 1.62971 2.60957 2.31494C2.31817 3.00016 2.24193 3.75416 2.39048 4.48159C2.53903 5.20902 2.90571 5.8772 3.44414 6.40165C3.98257 6.9261 4.66858 7.28325 5.41541 7.42794C6.16223 7.57264 6.93634 7.49838 7.63984 7.21455C8.34333 6.93072 8.94462 6.45007 9.36766 5.83339C9.79071 5.2167 10.0165 4.49168 10.0165 3.75C10.0165 2.75544 9.61088 1.80161 8.88886 1.09835C8.16685 0.395088 7.18759 0 6.1665 0ZM11.6665 15H10.5665V12.3214C10.5665 11.611 10.2768 10.9297 9.76105 10.4274C9.24532 9.92506 8.54585 9.64286 7.8165 9.64286H4.5165C3.78716 9.64286 3.08769 9.92506 2.57196 10.4274C2.05624 10.9297 1.7665 11.611 1.7665 12.3214V15H0.666504V12.3214C0.666504 11.3269 1.07213 10.373 1.79414 9.66978C2.51616 8.96652 3.49542 8.57143 4.5165 8.57143H7.8165C8.83759 8.57143 9.81685 8.96652 10.5389 9.66978C11.2609 10.373 11.6665 11.3269 11.6665 12.3214V15Z" fill="#000000"/>
</svg>
