<svg width="16" height="16" viewBox="0 0 16 16" fill="none" xmlns="http://www.w3.org/2000/svg">
<path fill-rule="evenodd" clip-rule="evenodd" d="M7.96914 1.59998H8.03106C8.56627 1.59998 9.01219 1.59998 9.36583 1.6476C9.73971 1.69761 10.0773 1.80835 10.3482 2.07923C10.6196 2.35071 10.7304 2.68827 10.7804 3.06156C10.8161 3.32351 10.825 3.63547 10.8274 3.99625C11.2132 4.00876 11.5573 4.03198 11.8633 4.07246C12.5611 4.16652 13.1261 4.36418 13.572 4.8095C14.0173 5.25542 14.2149 5.8204 14.309 6.51815C14.4001 7.19685 14.4001 8.06308 14.4001 9.15733V9.22401C14.4001 10.3183 14.4001 11.1851 14.309 11.8632C14.2149 12.5609 14.0173 13.1259 13.572 13.5718C13.1261 14.0172 12.5611 14.2148 11.8633 14.3089C11.1846 14.4 10.3184 14.4 9.22413 14.4H6.77606C5.68181 14.4 4.81498 14.4 4.13688 14.3089C3.43913 14.2148 2.87414 14.0172 2.42823 13.5718C1.98291 13.1259 1.78525 12.5609 1.69119 11.8632C1.6001 11.1845 1.6001 10.3183 1.6001 9.22401V9.15733C1.6001 8.06308 1.6001 7.19625 1.69119 6.51815C1.78525 5.8204 1.98291 5.25542 2.42823 4.8095C2.87414 4.36418 3.43913 4.16652 4.13688 4.07246C4.48075 4.03033 4.82645 4.0049 5.17279 3.99625C5.17517 3.63547 5.18469 3.32351 5.21982 3.06156C5.26983 2.68827 5.38056 2.35071 5.65145 2.07923C5.92293 1.80835 6.26049 1.69821 6.63377 1.6476C6.988 1.59998 7.43452 1.59998 7.96914 1.59998ZM6.0664 3.98256C6.29145 3.98137 6.528 3.98097 6.77606 3.98137H9.22413C9.4722 3.98137 9.70875 3.98177 9.93379 3.98256C9.93141 3.64321 9.92307 3.38721 9.89569 3.18063C9.85818 2.90617 9.79448 2.78829 9.71708 2.7109C9.63969 2.6335 9.52181 2.5698 9.24676 2.53229C8.9598 2.49419 8.57401 2.493 8.0001 2.493C7.42618 2.493 7.0404 2.49419 6.75284 2.53289C6.47839 2.5698 6.36051 2.6335 6.28311 2.71149C6.20572 2.78948 6.14201 2.90617 6.10451 3.18063C6.07712 3.38662 6.06879 3.64262 6.0664 3.98256ZM4.25535 4.95774C3.65643 5.03812 3.31113 5.18933 3.0587 5.44117C2.80747 5.693 2.65625 6.0383 2.57587 6.63722C2.49372 7.24865 2.49253 8.05534 2.49253 9.19067C2.49253 10.326 2.49372 11.1327 2.57587 11.7447C2.65625 12.343 2.80747 12.6883 3.0593 12.9402C3.31113 13.192 3.65643 13.3432 4.25535 13.4236C4.86737 13.5058 5.67347 13.507 6.8088 13.507H9.1902C10.3255 13.507 11.1322 13.5058 11.7442 13.4236C12.3426 13.3432 12.6879 13.192 12.9397 12.9402C13.1915 12.6883 13.3428 12.343 13.4231 11.7441C13.5053 11.1327 13.5065 10.326 13.5065 9.19067C13.5065 8.05534 13.5053 7.24924 13.4231 6.63663C13.3428 6.0383 13.1915 5.693 12.9397 5.44117C12.6879 5.18933 12.3426 5.03812 11.7437 4.95774C11.1322 4.87558 10.3255 4.87439 9.1902 4.87439H6.8088C5.67347 4.87439 4.86797 4.87558 4.25535 4.95774Z" fill="#E1E1E1"/>
<path d="M10.9769 6.214C10.9769 6.3719 10.9142 6.52333 10.8026 6.63498C10.6909 6.74663 10.5395 6.80935 10.3816 6.80935C10.2237 6.80935 10.0723 6.74663 9.9606 6.63498C9.84895 6.52333 9.78623 6.3719 9.78623 6.214C9.78623 6.0561 9.84895 5.90468 9.9606 5.79303C10.0723 5.68138 10.2237 5.61865 10.3816 5.61865C10.5395 5.61865 10.6909 5.68138 10.8026 5.79303C10.9142 5.90468 10.9769 6.0561 10.9769 6.214ZM6.21414 6.214C6.21414 6.3719 6.15141 6.52333 6.03976 6.63498C5.92811 6.74663 5.77668 6.80935 5.61879 6.80935C5.46089 6.80935 5.30946 6.74663 5.19781 6.63498C5.08616 6.52333 5.02344 6.3719 5.02344 6.214C5.02344 6.0561 5.08616 5.90468 5.19781 5.79303C5.30946 5.68138 5.46089 5.61865 5.61879 5.61865C5.77668 5.61865 5.92811 5.68138 6.03976 5.79303C6.15141 5.90468 6.21414 6.0561 6.21414 6.214Z" fill="#E1E1E1"/>
</svg>
